# xmcd
#
# Track frame offsets:
#	150
#	10349
#	23316
#	35164
#	46612
#	58623
#	72188
#	85898
#	95686
#	109464
#	119166
#	128470
#	139676
#	150547
#	160907
#	174991
#	185542
#	196022
#	202510
#	215634
#	227877
#	241094
#	253434
#
# Disc length: 3534 seconds
#
# Revision: 1
# Processed by: cddbd v1.4PL0 Copyright (c) Steve Scherf et al.
# Submitted via: audiograbber 1.81.02
#
DISCID=360dcc17
DTITLE=Moon Mullican - Moonshine Jamboree
DYEAR=1900
DGENRE=Blues
TTITLE0=Hey Mr Cotton Picker
TTITLE1=Leaving You With A Worried Mind
TTITLE2=What's The Matter With The Mill
TTITLE3=Pipeliner Blues
TTITLE4=Triflin' Woman Blues
TTITLE5=Nine Tenths of the Tennessee River
TTITLE6=Cherokee Boogie
TTITLE7=All I Need Is You
TTITLE8=I'll Sail My Ship Alone
TTITLE9=Good Deal Lucille
TTITLE10=Moonshine Blues
TTITLE11=Rocket to the Moon
TTITLE12=Downstream
TTITLE13=I Done It
TTITLE14=Goodnight Irene
TTITLE15=Rheumatism Boogie
TTITLE16=Well Oh Well
TTITLE17=Don't Ever Take My Picture Down
TTITLE18=The Lonesome Hearted
TTITLE19=It's a Sin to Love You Like I Do
TTITLE20=I'm Gonna Move Home Bye and Bye
TTITLE21=I Left My Heart In Texas
TTITLE22=I'll Take Your Hat Right Off My Rack
EXTD=
EXTT0=
EXTT1=
EXTT2=
EXTT3=
EXTT4=
EXTT5=
EXTT6=
EXTT7=
EXTT8=
EXTT9=
EXTT10=
EXTT11=
EXTT12=
EXTT13=
EXTT14=
EXTT15=
EXTT16=
EXTT17=
EXTT18=
EXTT19=
EXTT20=
EXTT21=
EXTT22=
PLAYORDER=
